<?xml version="1.0" standalone="no"?><!DOCTYPE svg PUBLIC "-//W3C//DTD SVG 1.1//EN" "http://www.w3.org/Graphics/SVG/1.1/DTD/svg11.dtd"><svg t="1602189565565" class="icon" viewBox="0 0 1024 1024" version="1.1" xmlns="http://www.w3.org/2000/svg" p-id="2922" xmlns:xlink="http://www.w3.org/1999/xlink" width="200" height="200"><defs><style type="text/css"></style></defs><path d="M258.628 600.945l0.428-3.273 217.16 28.383-0.428 3.272zM258.813 557.222l216.948-8.057 0.122 3.298-216.948 8.056z" fill="#2c2c2c" p-id="2923"></path><path d="M259.9 420c-88.1 0-159.5 71.4-159.5 159.5S171.8 739 259.9 739s159.5-71.4 159.5-159.5S348 420 259.9 420zM356 675.6c-25.7 25.7-59.8 39.8-96.1 39.8s-70.4-14.1-96.1-39.8c-25.7-25.7-39.8-59.8-39.8-96.1s14.1-70.4 39.8-96.1c25.7-25.7 59.8-39.8 96.1-39.8s70.4 14.1 96.1 39.8c25.7 25.7 39.8 59.8 39.8 96.1s-14.1 70.4-39.8 96.1z" fill="#2c2c2c" p-id="2924"></path><path d="M127.5 578.4h261.2v2H127.5z" fill="#2c2c2c" p-id="2925"></path><path d="M135.008 623.091l245.45-89.304 0.684 1.88-245.45 89.304z" fill="#2c2c2c" p-id="2926"></path><path d="M157.41 662.61l200.08-167.926 1.285 1.532L158.696 664.14z" fill="#2c2c2c" p-id="2927"></path><path d="M191.916 692.009L322.49 465.783l1.732 1L193.648 693.01z" fill="#2c2c2c" p-id="2928"></path><path d="M234.376 707.856l45.396-257.23 1.97 0.348-45.397 257.23z" fill="#2c2c2c" p-id="2929"></path><path d="M234.422 451.065l1.97-0.347 45.344 257.23-1.97 0.347z" fill="#2c2c2c" p-id="2930"></path><path d="M191.954 466.874l1.732-1 130.6 226.2-1.732 1z" fill="#2c2c2c" p-id="2931"></path><path d="M157.435 496.308l1.285-1.532 200.08 167.9-1.286 1.532z" fill="#2c2c2c" p-id="2932"></path><path d="M135.08 535.717l0.684-1.88 245.45 89.331-0.685 1.88z" fill="#2c2c2c" p-id="2933"></path><path d="M356 483.3c-25.7-25.7-59.8-39.8-96.1-39.8s-70.4 14.1-96.1 39.8C138.1 509 124 543.1 124 579.4s14.1 70.4 39.8 96.1c25.7 25.7 59.8 39.8 96.1 39.8s70.4-14.1 96.1-39.8c25.7-25.7 39.8-59.8 39.8-96.1S381.7 509 356 483.3zM349.4 669c-23.9 23.9-55.7 37.1-89.5 37.1s-65.6-13.2-89.5-37.1c-23.9-23.9-37.1-55.7-37.1-89.5s13.2-65.6 37.1-89.5c23.9-23.9 55.7-37.1 89.5-37.1s65.6 13.2 89.5 37.1c23.9 23.9 37.1 55.7 37.1 89.5s-13.2 65.6-37.1 89.5z" fill="#2c2c2c" p-id="2934"></path><path d="M259.9 579.4m-21.9 0a21.9 21.9 0 1 0 43.8 0 21.9 21.9 0 1 0-43.8 0Z" fill="#2c2c2c" p-id="2935"></path><path d="M259.9 565.5c7.7 0 13.9 6.2 13.9 13.9s-6.2 13.9-13.9 13.9-13.9-6.2-13.9-13.9 6.2-13.9 13.9-13.9m0-8c-12.1 0-21.9 9.8-21.9 21.9 0 12.1 9.8 21.9 21.9 21.9 12.1 0 21.9-9.8 21.9-21.9 0-12.1-9.8-21.9-21.9-21.9z" fill="#2c2c2c" p-id="2936"></path><path d="M764.1 420c-88.1 0-159.5 71.4-159.5 159.5S676 739 764.1 739s159.5-71.4 159.5-159.5S852.2 420 764.1 420z m96.1 255.6c-25.7 25.7-59.8 39.8-96.1 39.8s-70.4-14.1-96.1-39.8c-25.7-25.7-39.8-59.8-39.8-96.1s14.1-70.4 39.8-96.1c25.7-25.7 59.8-39.8 96.1-39.8s70.4 14.1 96.1 39.8c25.7 25.7 39.8 59.8 39.8 96.1 0.1 36.3-14.1 70.4-39.8 96.1z" fill="#2c2c2c" p-id="2937"></path><path d="M631.8 578.4H893v2H631.8z" fill="#2c2c2c" p-id="2938"></path><path d="M639.287 623.075l245.45-89.304 0.684 1.88-245.45 89.303z" fill="#2c2c2c" p-id="2939"></path><path d="M661.713 662.565l200.079-167.926 1.286 1.532-200.08 167.926z" fill="#2c2c2c" p-id="2940"></path><path d="M696.183 691.954L826.757 465.73l1.732 1-130.574 226.225z" fill="#2c2c2c" p-id="2941"></path><path d="M738.639 707.798l45.422-257.23 1.97 0.348-45.423 257.23z" fill="#2c2c2c" p-id="2942"></path><path d="M738.663 451.025l1.97-0.348 45.37 257.23-1.97 0.347z" fill="#2c2c2c" p-id="2943"></path><path d="M696.149 466.9l1.732-1 130.6 226.2-1.732 1z" fill="#2c2c2c" p-id="2944"></path><path d="M661.66 496.37l1.286-1.531 200.079 167.9-1.286 1.531z" fill="#2c2c2c" p-id="2945"></path><path d="M639.305 535.763l0.684-1.88 245.45 89.331-0.684 1.88z" fill="#2c2c2c" p-id="2946"></path><path d="M860.2 483.3c-25.7-25.7-59.8-39.8-96.1-39.8s-70.4 14.1-96.1 39.8c-25.7 25.7-39.8 59.8-39.8 96.1s14.1 70.4 39.8 96.1c25.7 25.7 59.8 39.8 96.1 39.8s70.4-14.1 96.1-39.8c25.7-25.7 39.8-59.8 39.8-96.1 0.1-36.3-14.1-70.4-39.8-96.1zM853.6 669c-23.9 23.9-55.7 37.1-89.5 37.1s-65.6-13.2-89.5-37.1c-23.9-23.9-37.1-55.7-37.1-89.5s13.2-65.6 37.1-89.5c23.9-23.9 55.7-37.1 89.5-37.1s65.6 13.2 89.5 37.1c23.9 23.9 37.1 55.7 37.1 89.5s-13.1 65.6-37.1 89.5z" fill="#2c2c2c" p-id="2947"></path><path d="M764.1 579.4m-21.9 0a21.9 21.9 0 1 0 43.8 0 21.9 21.9 0 1 0-43.8 0Z" fill="#2c2c2c" p-id="2948"></path><path d="M764.1 565.5c7.7 0 13.9 6.2 13.9 13.9s-6.2 13.9-13.9 13.9-13.9-6.2-13.9-13.9 6.2-13.9 13.9-13.9m0-8c-12.1 0-21.9 9.8-21.9 21.9 0 12.1 9.8 21.9 21.9 21.9 12.1 0 21.9-9.8 21.9-21.9 0.1-12.1-9.8-21.9-21.9-21.9z" fill="#2c2c2c" p-id="2949"></path><path d="M355.2 324.4l121.9 262" fill="#2c2c2c" p-id="2950"></path><path d="M348.428 327.536l13.6-6.326L483.9 583.247l-13.6 6.325z" fill="#2c2c2c" p-id="2951"></path><path d="M637.5 309.3l126.6 270.1" fill="#2c2c2c" p-id="2952"></path><path d="M764.1 585.4c-2.3 0-4.4-1.3-5.4-3.5l-126.6-270c-1.4-3-0.1-6.6 2.9-8 3-1.4 6.6-0.1 8 2.9l126.6 270.1c1.4 3 0.1 6.6-2.9 8-0.9 0.4-1.7 0.5-2.6 0.5z" fill="#2c2c2c" p-id="2953"></path><path d="M467.3 564.1l-1.7-10.8c31.3-4.8 59.8-22.5 78.1-48.4l105.1-161.5 17.6 20.9-113.7 146.9c-20 28.3-51.2 47.6-85.4 52.9z" fill="#2c2c2c" p-id="2954"></path><path d="M517.8 593.6l-3.8-1.5c0.1-1 0.1-2.1 0.1-3.1s-0.1-2.1-0.1-3.1l3.8-1.5c0.2-0.1 0.2-0.2 0.2-0.4l-0.8-4.8c0-0.2-0.2-0.3-0.3-0.3l-4-0.1c-0.6-2-1.3-4-2.1-5.8l3-2.7c0.1-0.1 0.2-0.3 0.1-0.5l-2.4-4.2c-0.1-0.2-0.3-0.2-0.4-0.2l-3.8 1.3c-1.2-1.7-2.5-3.3-4-4.7l2-3.6c0.1-0.2 0-0.3-0.1-0.5l-3.7-3.1c-0.1-0.1-0.3-0.1-0.5 0l-3.2 2.5c-1.7-1.2-3.5-2.2-5.4-3.1l0.6-4c0-0.2-0.1-0.3-0.2-0.4l-4.6-1.7c-0.2-0.1-0.3 0-0.4 0.1l-2.1 3.5c-2-0.5-4-0.9-6.1-1.1l-0.8-4c0-0.2-0.2-0.3-0.4-0.3h-4.9c-0.2 0-0.3 0.1-0.4 0.3l-0.8 4c-2.1 0.2-4.1 0.6-6.1 1.1l-2.1-3.5c-0.1-0.1-0.3-0.2-0.4-0.1L459 550c-0.2 0.1-0.3 0.2-0.2 0.4l0.6 4c-1.9 0.9-3.7 1.9-5.4 3.1l-3.2-2.5c-0.1-0.1-0.3-0.1-0.5 0l-3.7 3.1c-0.1 0.1-0.2 0.3-0.1 0.5l2 3.5c-1.4 1.5-2.8 3.1-4 4.7l-3.8-1.3c-0.2 0-0.3 0-0.4 0.2l-2.4 4.2c-0.1 0.2-0.1 0.3 0.1 0.5l3 2.7a31 31 0 0 0-2.1 5.8l-4 0.1c-0.2 0-0.3 0.1-0.3 0.3l-0.8 4.8c0 0.2 0.1 0.3 0.2 0.4l3.8 1.5c-0.1 1-0.1 2.1-0.1 3.1s0.1 2.1 0.1 3.1l-3.8 1.5c-0.2 0.1-0.2 0.2-0.2 0.4l0.8 4.8c0 0.2 0.2 0.3 0.3 0.3l4 0.1c0.6 2 1.3 4 2.1 5.8l-3 2.7c-0.1 0.1-0.2 0.3-0.1 0.5l2.4 4.2c0.1 0.2 0.3 0.2 0.4 0.2l3.8-1.3c1.2 1.7 2.5 3.3 4 4.7l-2 3.5c-0.1 0.2 0 0.3 0.1 0.5l3.7 3.1c0.1 0.1 0.3 0.1 0.5 0l3.2-2.5c1.7 1.2 3.5 2.2 5.4 3.1l-0.6 4c0 0.2 0.1 0.3 0.2 0.4l4.6 1.7c0.2 0.1 0.3 0 0.4-0.1l2.1-3.5c2 0.5 4 0.9 6.1 1.1l0.8 4c0 0.2 0.2 0.3 0.4 0.3h4.9c0.2 0 0.3-0.1 0.4-0.3l0.8-4c2.1-0.2 4.1-0.6 6.1-1.1l2.1 3.5c0.1 0.1 0.3 0.2 0.4 0.1l4.6-1.7c0.2-0.1 0.3-0.2 0.2-0.4l-0.6-4c1.9-0.9 3.7-1.9 5.4-3.1l3.2 2.5c0.1 0.1 0.3 0.1 0.5 0l3.7-3.1c0.1-0.1 0.2-0.3 0.1-0.5l-2-3.6c1.4-1.5 2.8-3.1 4-4.7l3.8 1.3c0.2 0 0.3 0 0.4-0.2l2.4-4.2c0.1-0.2 0.1-0.3-0.1-0.5l-3-2.7a31 31 0 0 0 2.1-5.8l4-0.1c0.2 0 0.3-0.1 0.3-0.3l0.8-4.8c0.2-0.1 0.1-0.3-0.1-0.4z m-10.2-4.5c0 17.5-14.3 31.8-31.8 31.8S444 606.6 444 589.1s14.3-31.8 31.8-31.8 31.8 14.2 31.8 31.8z" fill="#2c2c2c" p-id="2955"></path><path d="M485.1 591.3l-0.7-7.7-6.1-4.1 5.2-21.3c-2.5-0.6-5.1-1-7.8-1-3.3 0-6.4 0.5-9.3 1.4l6.6 21.2-6.3 4.4-0.5 7.3-21 6.1c1.6 5.7 4.7 10.7 8.9 14.6l15.1-16.3 7 3.2 6.6-3.2 15.8 15.2c4-4.1 6.9-9.3 8.2-15l-21.7-4.8z" fill="#2c2c2c" p-id="2956"></path><path d="M475.8 589.1m-11.5 0a11.5 11.5 0 1 0 23 0 11.5 11.5 0 1 0-23 0Z" fill="#2c2c2c" p-id="2957"></path><path d="M475.8 581.6c4.1 0 7.5 3.4 7.5 7.5s-3.4 7.5-7.5 7.5-7.5-3.4-7.5-7.5 3.4-7.5 7.5-7.5m0-4c-6.3 0-11.5 5.1-11.5 11.5 0 6.3 5.1 11.5 11.5 11.5 6.3 0 11.5-5.1 11.5-11.5s-5.2-11.5-11.5-11.5z" fill="#2c2c2c" p-id="2958"></path><path d="M287.2 307.3c-3.9 9.3 10.5 22 33 27.6 16.2 4.1 82.1-15.1 117.4-26.1 4-1.2 3-8.5-1.1-8.7-46-2.4-143-6-149.3 7.2z" fill="#2c2c2c" p-id="2959"></path><path d="M691.7 330.8c-0.5 0-1 0-1.5-0.1-4.1-0.8-6.7-4.8-5.9-8.8 0 0 1.2-6.3 0-13.3-0.3-1.9-1.2-3.8-2.4-5.7-2.1-3.1-6.4-4.2-10-2.6l-50.3 22.4c-3.8 1.7-8.2 0-9.9-3.8-1.7-3.8 0-8.2 3.8-9.9l50.3-22.4c10.3-4.6 22.3-1.3 28.5 7.9 2.5 3.7 4.1 7.5 4.8 11.5 1.7 9.8 0 18.5 0 18.8-0.7 3.5-3.9 6-7.4 6zM381.032 372.431l272.074-37.126 2.028 14.862-272.074 37.126zM475.8 594.1h-0.2l-215.9-9.6c-2.8-0.1-4.9-2.5-4.8-5.2s2.5-4.9 5.2-4.8l215.9 9.6c2.8 0.1 4.9 2.5 4.8 5.2-0.1 2.7-2.3 4.8-5 4.8z" fill="#2c2c2c" p-id="2960"></path><path d="M254.708 576.339l119.567-203.017 10.34 6.09L265.048 582.43z" fill="#2c2c2c" p-id="2961"></path></svg>