<?xml version="1.0" standalone="no"?><!DOCTYPE svg PUBLIC "-//W3C//DTD SVG 1.1//EN" "http://www.w3.org/Graphics/SVG/1.1/DTD/svg11.dtd"><svg t="1606377300128" class="icon" viewBox="0 0 1024 1024" version="1.1" xmlns="http://www.w3.org/2000/svg" p-id="1147" xmlns:xlink="http://www.w3.org/1999/xlink" width="200" height="200"><defs><style type="text/css"></style></defs><path d="M534.254933 783.018667v68.539733c0 16.384 10.922667 27.306667 27.374934 27.306667 16.452267 0 27.4432-10.922667 27.4432-27.306667V783.018667c0-16.384-10.922667-27.374933-27.4432-27.374934-16.384 0-27.374933 10.922667-27.374934 27.374934z m197.290667-126.020267a26.4192 26.4192 0 0 0 0 38.365867l49.288533 49.3568c5.461333 5.461333 13.653333 8.192 19.114667 8.192 5.5296 0 13.7216-2.730667 19.2512-8.192a26.487467 26.487467 0 0 0 0-38.365867l-49.3568-49.3568c-8.192-10.922667-27.374933-10.922667-38.2976 0z m147.933867-164.386133c16.384 0 27.306667-10.922667 27.306666-27.374934 0-16.384-10.922667-27.4432-27.306666-27.4432h-68.539734c-16.384 0-27.374933 10.990933-27.374933 27.4432 0 16.384 10.922667 27.374933 27.374933 27.374934h68.539734z m-147.933867-284.8768l-49.3568 49.288533a26.487467 26.487467 0 0 0 0 38.365867c5.461333 5.461333 13.653333 8.192 19.182933 8.192 5.461333 0 13.653333-2.730667 19.114667-8.192l49.3568-49.3568a26.487467 26.487467 0 0 0 0-38.2976 26.487467 26.487467 0 0 0-38.2976 0zM408.234667 591.189333c2.730667 0 8.192 0 10.922666-2.730666l134.280534-60.279467c13.653333 0 24.644267-13.653333 24.644266-27.374933V259.754667c0-16.384-10.922667-27.374933-27.374933-27.374934-16.452267 0-27.4432 10.922667-27.4432 27.306667v219.272533l-126.020267 57.5488c-13.653333 5.461333-19.114667 21.845333-13.653333 35.566934 5.461333 13.653333 16.384 19.182933 24.576 19.182933z" p-id="1148" fill="#707070"></path><path d="M520.533333 59.8016c0 16.384 10.922667 27.374933 27.4432 27.374933 230.126933 0 416.426667 186.368 416.426667 416.426667 0 230.126933-186.299733 416.426667-416.426667 416.426667-227.396267 0-413.696-183.569067-416.426666-410.965334l24.576 24.712534c5.5296 5.461333 13.7216 8.192 19.182933 8.192 5.461333 0 13.7216-2.730667 19.182933-8.192a26.555733 26.555733 0 0 0 0-38.365867L101.376 402.2272 8.192 495.4112a26.555733 26.555733 0 0 0 0 38.365867c10.922667 10.922667 27.4432 10.922667 38.434133 0l30.037334-30.173867A471.2448 471.2448 0 1 0 547.976533 32.3584c-16.452267 0-27.4432 10.990933-27.4432 27.4432z" p-id="1149" fill="#707070"></path></svg>