<?xml version="1.0" standalone="no"?><!DOCTYPE svg PUBLIC "-//W3C//DTD SVG 1.1//EN" "http://www.w3.org/Graphics/SVG/1.1/DTD/svg11.dtd"><svg t="1606377786134" class="icon" viewBox="0 0 1024 1024" version="1.1" xmlns="http://www.w3.org/2000/svg" p-id="3622" xmlns:xlink="http://www.w3.org/1999/xlink" width="200" height="200"><defs><style type="text/css"></style></defs><path d="M250.4 704.6 64 704.6l0-109.2 202.4 0 26.2-166.6L94 428.8l0-109.2 214.4 0L352 64l127.8 0-43.6 255.4 211.2 0L691 64l126.2 0-43.6 255.4L960 319.4l0 109.2L756.2 428.6l-24.6 166.6L930 595.2l0 109.2L717 704.4 672 960l-126.2 0 43.6-255.4L376.6 704.6 333 960l-126.2 0L250.4 704.6zM418.8 428.6 394 595.4l211.2 0 24.6-166.6L418.8 428.8z" p-id="3623" fill="#e4e651"></path></svg>