<?xml version="1.0" standalone="no"?><!DOCTYPE svg PUBLIC "-//W3C//DTD SVG 1.1//EN" "http://www.w3.org/Graphics/SVG/1.1/DTD/svg11.dtd"><svg t="1605518767101" class="icon" viewBox="0 0 1024 1024" version="1.1" xmlns="http://www.w3.org/2000/svg" p-id="2488" xmlns:xlink="http://www.w3.org/1999/xlink" width="200" height="200"><defs><style type="text/css"></style></defs><path d="M511.504 128c-33.536 0-65.92 4.768-96.96 12.896-0.832 0.16-1.6-0.064-2.432 0.16-0.736 0.192-1.28 0.736-1.984 0.992a384.768 384.768 0 0 0-268.608 268.576c-0.256 0.736-0.8 1.248-0.992 1.984-0.224 0.832 0 1.632-0.16 2.432-8.096 31.04-12.864 63.424-12.864 96.96 0.064 211.84 172.16 383.936 384 384 33.568 0 65.92-4.768 96.96-12.896 0.832-0.16 1.6 0.064 2.432-0.16 0.736-0.192 1.28-0.736 1.984-0.992a384.672 384.672 0 0 0 268.576-268.576c0.256-0.736 0.8-1.248 0.992-1.984 0.224-0.832 0-1.632 0.16-2.432 8.128-31.04 12.896-63.392 12.896-96.96-0.064-211.84-172.192-383.936-384-384z m0 64a318.08 318.08 0 0 1 202.368 72.384l-137.76 137.728A126.592 126.592 0 0 0 511.504 384c-0.384 0-0.736 0.096-1.12 0.128l-50.272-187.584A316.064 316.064 0 0 1 511.504 192z m64 320a64.256 64.256 0 0 1-64 64 64.256 64.256 0 0 1-64-64c0.064-35.2 28.8-63.936 64-64 35.2 0.064 63.936 28.8 64 64zM285.328 285.856a321.024 321.024 0 0 1 112.928-72.768l50.4 188.096a128 128 0 0 0-48 48l-188.096-50.4a320.896 320.896 0 0 1 72.768-112.928zM191.504 512a320 320 0 0 1 4.512-51.392l187.584 50.272c0 0.384-0.128 0.736-0.128 1.152 0.032 23.68 6.912 45.6 18.144 64.608l-137.76 137.76A318.4 318.4 0 0 1 191.504 512z m320 320a318.272 318.272 0 0 1-202.368-72.384l137.728-137.76a126.944 126.944 0 0 0 64.608 18.144c0.384 0 0.736-0.096 1.12-0.128l50.272 187.584a315.68 315.68 0 0 1-51.36 4.544z m226.144-93.856a321.024 321.024 0 0 1-112.928 72.768l-50.4-188.096a127.776 127.776 0 0 0 48-48l188.096 50.4a320.736 320.736 0 0 1-72.768 112.928z m89.312-174.752l-187.584-50.272c0-0.384 0.128-0.736 0.128-1.12a126.848 126.848 0 0 0-18.144-64.608l137.728-137.76A318.208 318.208 0 0 1 831.472 512a312.832 312.832 0 0 1-4.512 51.392z" fill="#dbdbdb" p-id="2489"></path><path d="M511.728 0C229.296 0.064 0.112 229.568 0.048 512c0.064 282.432 224.32 511.936 512.32 512 288-0.064 511.488-229.568 511.552-512C1023.888 229.568 794.128 0.064 511.728 0z m316.864 828.64C747.344 909.824 640.368 960 512.368 960s-235.84-50.176-317.056-131.36C114.128 747.392 63.728 635.584 63.728 512c0-123.584 50.08-235.392 131.264-316.64A446.24 446.24 0 0 1 511.536 64a446.4 446.4 0 0 1 316.608 131.36A446.592 446.592 0 0 1 959.504 512a446.08 446.08 0 0 1-130.912 316.64z" fill="#dbdbdb" p-id="2490"></path></svg>